<svg width="24" height="24" viewBox="0 0 24 24" fill="none" xmlns="http://www.w3.org/2000/svg">
<path d="M23.7919 11.6833L16.3614 4.41276C16.2183 4.30369 16.0394 4.24962 15.8584 4.2607C15.6774 4.27177 15.5067 4.34724 15.3785 4.47292C15.2502 4.5986 15.1732 4.76584 15.1619 4.94323C15.1506 5.12062 15.2058 5.29595 15.3171 5.43629L21.4751 11.4716H0.744247C0.546861 11.4716 0.357559 11.5484 0.217985 11.6852C0.0784117 11.822 0 12.0075 0 12.201C0 12.3944 0.0784117 12.58 0.217985 12.7168C0.357559 12.8536 0.546861 12.9304 0.744247 12.9304H21.4631L15.3171 18.9539C15.2338 19.0174 15.1651 19.0975 15.1158 19.189C15.0665 19.2805 15.0376 19.3812 15.031 19.4844C15.0244 19.5877 15.0403 19.6911 15.0777 19.7879C15.115 19.8846 15.1729 19.9725 15.2475 20.0456C15.3222 20.1188 15.4118 20.1755 15.5106 20.2121C15.6093 20.2487 15.7148 20.2643 15.8202 20.2579C15.9255 20.2514 16.0283 20.2231 16.1216 20.1747C16.2149 20.1264 16.2967 20.0591 16.3614 19.9775L23.7919 12.6951C23.9254 12.5592 24 12.3779 24 12.1892C24 12.0006 23.9254 11.8193 23.7919 11.6833Z" fill="#FEFEFE"/>
</svg>
